<?xml version="1.0" encoding="UTF-8" standalone="no"?>
<!DOCTYPE svg PUBLIC "-//W3C//DTD SVG 1.1//EN"
 "http://www.w3.org/Graphics/SVG/1.1/DTD/svg11.dtd">
<!-- Generated by graphviz version 2.40.1 (20161225.0304)
 -->
<!-- Title: file Pages: 1 -->
<svg width="240pt" height="225pt"
 viewBox="0.00 0.00 240.00 225.00" xmlns="http://www.w3.org/2000/svg" xmlns:xlink="http://www.w3.org/1999/xlink">
<g id="graph0" class="graph" transform="scale(1 1) rotate(0) translate(4 221)">
<title>file</title>
<polygon fill="#ffffff" stroke="transparent" points="-4,4 -4,-221 236,-221 236,4 -4,4"/>
<!-- file -->
<g id="node1" class="node">
<title>file</title>
<polygon fill="#efefef" stroke="transparent" points="46,-135.5 46,-170.5 186,-170.5 186,-135.5 46,-135.5"/>
<polygon fill="none" stroke="#000000" points="46,-135.5 46,-170.5 186,-170.5 186,-135.5 46,-135.5"/>
<text text-anchor="start" x="55.8747" y="-148.3" font-family="Arial Bold" font-size="18.00" fill="#000000">file</text>
<text text-anchor="start" x="78.8715" y="-148.3" font-family="Arial" font-size="14.00" fill="#000000"> </text>
<text text-anchor="start" x="82.7621" y="-148.3" font-family="Arial" font-size="14.00" fill="#666666">[BASE TABLE]</text>
<polygon fill="none" stroke="#000000" points="46,-105.5 46,-135.5 186,-135.5 186,-105.5 46,-105.5"/>
<text text-anchor="start" x="53" y="-116.9" font-family="Arial" font-size="14.00" fill="#000000">file_id </text>
<text text-anchor="start" x="93.4488" y="-116.9" font-family="Arial" font-size="14.00" fill="#666666">[varchar(64)]</text>
<polygon fill="none" stroke="#000000" points="46,-75.5 46,-105.5 186,-105.5 186,-75.5 46,-75.5"/>
<text text-anchor="start" x="52.9846" y="-86.9" font-family="Arial" font-size="14.00" fill="#000000">path </text>
<text text-anchor="start" x="84.1136" y="-86.9" font-family="Arial" font-size="14.00" fill="#666666">[varchar(1024)]</text>
<polygon fill="none" stroke="#000000" points="46,-45.5 46,-75.5 186,-75.5 186,-45.5 46,-45.5"/>
<text text-anchor="start" x="52.9909" y="-56.9" font-family="Arial" font-size="14.00" fill="#000000">name </text>
<text text-anchor="start" x="91.8899" y="-56.9" font-family="Arial" font-size="14.00" fill="#666666">[varchar(256)]</text>
<polygon fill="none" stroke="#000000" stroke-width="3" points="44.5,-44.5 44.5,-172.5 187.5,-172.5 187.5,-44.5 44.5,-44.5"/>
</g>
</g>
</svg>
