<?xml version="1.0" encoding="UTF-8" standalone="no"?>
<!DOCTYPE svg PUBLIC "-//W3C//DTD SVG 1.1//EN"
 "http://www.w3.org/Graphics/SVG/1.1/DTD/svg11.dtd">
<!-- Generated by graphviz version 2.40.1 (20161225.0304)
 -->
<!-- Title: record_item_file Pages: 1 -->
<svg width="346pt" height="285pt"
 viewBox="0.00 0.00 346.00 285.00" xmlns="http://www.w3.org/2000/svg" xmlns:xlink="http://www.w3.org/1999/xlink">
<g id="graph0" class="graph" transform="scale(1 1) rotate(0) translate(4 281)">
<title>record_item_file</title>
<polygon fill="#ffffff" stroke="transparent" points="-4,4 -4,-281 342,-281 342,4 -4,4"/>
<!-- record_item_file -->
<g id="node1" class="node">
<title>record_item_file</title>
<polygon fill="#efefef" stroke="transparent" points="46,-195.5 46,-230.5 292,-230.5 292,-195.5 46,-195.5"/>
<polygon fill="none" stroke="#000000" points="46,-195.5 46,-230.5 292,-230.5 292,-195.5 46,-195.5"/>
<text text-anchor="start" x="56.3696" y="-208.3" font-family="Arial Bold" font-size="18.00" fill="#000000">record_item_file</text>
<text text-anchor="start" x="184.3766" y="-208.3" font-family="Arial" font-size="14.00" fill="#000000"> </text>
<text text-anchor="start" x="188.2672" y="-208.3" font-family="Arial" font-size="14.00" fill="#666666">[BASE TABLE]</text>
<polygon fill="none" stroke="#000000" points="46,-165.5 46,-195.5 292,-195.5 292,-165.5 46,-165.5"/>
<text text-anchor="start" x="53" y="-176.9" font-family="Arial" font-size="14.00" fill="#000000">item_id </text>
<text text-anchor="start" x="102.0028" y="-176.9" font-family="Arial" font-size="14.00" fill="#666666">[bigint]</text>
<polygon fill="none" stroke="#000000" points="46,-135.5 46,-165.5 292,-165.5 292,-135.5 46,-135.5"/>
<text text-anchor="start" x="53" y="-146.9" font-family="Arial" font-size="14.00" fill="#000000">linked_record_id </text>
<text text-anchor="start" x="159.575" y="-146.9" font-family="Arial" font-size="14.00" fill="#666666">[varchar(64)]</text>
<polygon fill="none" stroke="#000000" points="46,-105.5 46,-135.5 292,-135.5 292,-105.5 46,-105.5"/>
<text text-anchor="start" x="53" y="-116.9" font-family="Arial" font-size="14.00" fill="#000000">linked_file_id </text>
<text text-anchor="start" x="137.7924" y="-116.9" font-family="Arial" font-size="14.00" fill="#666666">[varchar(64)]</text>
<polygon fill="none" stroke="#000000" points="46,-75.5 46,-105.5 292,-105.5 292,-75.5 46,-75.5"/>
<text text-anchor="start" x="52.7055" y="-86.9" font-family="Arial" font-size="14.00" fill="#000000">linked_thumbnail_file_id </text>
<text text-anchor="start" x="205.9579" y="-86.9" font-family="Arial" font-size="14.00" fill="#666666">[varchar(64)]</text>
<polygon fill="none" stroke="#000000" points="46,-45.5 46,-75.5 292,-75.5 292,-45.5 46,-45.5"/>
<text text-anchor="start" x="53" y="-56.9" font-family="Arial" font-size="14.00" fill="#000000">created_at </text>
<text text-anchor="start" x="123.028" y="-56.9" font-family="Arial" font-size="14.00" fill="#666666">[timestamp]</text>
<polygon fill="none" stroke="#000000" stroke-width="3" points="44.5,-44.5 44.5,-232.5 293.5,-232.5 293.5,-44.5 44.5,-44.5"/>
</g>
</g>
</svg>
