<?xml version="1.0" encoding="UTF-8" standalone="no"?>
<!DOCTYPE svg PUBLIC "-//W3C//DTD SVG 1.1//EN"
 "http://www.w3.org/Graphics/SVG/1.1/DTD/svg11.dtd">
<!-- Generated by graphviz version 2.40.1 (20161225.0304)
 -->
<!-- Title: record Pages: 1 -->
<svg width="269pt" height="405pt"
 viewBox="0.00 0.00 269.00 405.00" xmlns="http://www.w3.org/2000/svg" xmlns:xlink="http://www.w3.org/1999/xlink">
<g id="graph0" class="graph" transform="scale(1 1) rotate(0) translate(4 401)">
<title>record</title>
<polygon fill="#ffffff" stroke="transparent" points="-4,4 -4,-401 265,-401 265,4 -4,4"/>
<!-- record -->
<g id="node1" class="node">
<title>record</title>
<polygon fill="#efefef" stroke="transparent" points="46.5,-315.5 46.5,-350.5 215.5,-350.5 215.5,-315.5 46.5,-315.5"/>
<polygon fill="none" stroke="#000000" points="46.5,-315.5 46.5,-350.5 215.5,-350.5 215.5,-315.5 46.5,-315.5"/>
<text text-anchor="start" x="56.8716" y="-328.3" font-family="Arial Bold" font-size="18.00" fill="#000000">record</text>
<text text-anchor="start" x="107.8746" y="-328.3" font-family="Arial" font-size="14.00" fill="#000000"> </text>
<text text-anchor="start" x="111.7652" y="-328.3" font-family="Arial" font-size="14.00" fill="#666666">[BASE TABLE]</text>
<polygon fill="none" stroke="#000000" points="46.5,-285.5 46.5,-315.5 215.5,-315.5 215.5,-285.5 46.5,-285.5"/>
<text text-anchor="start" x="53.5" y="-296.9" font-family="Arial" font-size="14.00" fill="#000000">record_id </text>
<text text-anchor="start" x="115.7314" y="-296.9" font-family="Arial" font-size="14.00" fill="#666666">[varchar(64)]</text>
<polygon fill="none" stroke="#000000" points="46.5,-255.5 46.5,-285.5 215.5,-285.5 215.5,-255.5 46.5,-255.5"/>
<text text-anchor="start" x="53.5" y="-266.9" font-family="Arial" font-size="14.00" fill="#000000">status </text>
<text text-anchor="start" x="94.737" y="-266.9" font-family="Arial" font-size="14.00" fill="#666666">[varchar(16)]</text>
<polygon fill="none" stroke="#000000" points="46.5,-225.5 46.5,-255.5 215.5,-255.5 215.5,-225.5 46.5,-225.5"/>
<text text-anchor="start" x="53.5" y="-236.9" font-family="Arial" font-size="14.00" fill="#000000">title </text>
<text text-anchor="start" x="79.1676" y="-236.9" font-family="Arial" font-size="14.00" fill="#666666">[varchar(128)]</text>
<polygon fill="none" stroke="#000000" points="46.5,-195.5 46.5,-225.5 215.5,-225.5 215.5,-195.5 46.5,-195.5"/>
<text text-anchor="start" x="53.5" y="-206.9" font-family="Arial" font-size="14.00" fill="#000000">detail </text>
<text text-anchor="start" x="90.8422" y="-206.9" font-family="Arial" font-size="14.00" fill="#666666">[varchar(512)]</text>
<polygon fill="none" stroke="#000000" points="46.5,-165.5 46.5,-195.5 215.5,-195.5 215.5,-165.5 46.5,-165.5"/>
<text text-anchor="start" x="53.5" y="-176.9" font-family="Arial" font-size="14.00" fill="#000000">category_id </text>
<text text-anchor="start" x="129.744" y="-176.9" font-family="Arial" font-size="14.00" fill="#666666">[bigint]</text>
<polygon fill="none" stroke="#000000" points="46.5,-135.5 46.5,-165.5 215.5,-165.5 215.5,-135.5 46.5,-135.5"/>
<text text-anchor="start" x="53.1985" y="-146.9" font-family="Arial" font-size="14.00" fill="#000000">application_group </text>
<text text-anchor="start" x="167.5687" y="-146.9" font-family="Arial" font-size="14.00" fill="#666666">[bigint]</text>
<polygon fill="none" stroke="#000000" points="46.5,-105.5 46.5,-135.5 215.5,-135.5 215.5,-105.5 46.5,-105.5"/>
<text text-anchor="start" x="53.5" y="-116.9" font-family="Arial" font-size="14.00" fill="#000000">created_by </text>
<text text-anchor="start" x="126.6374" y="-116.9" font-family="Arial" font-size="14.00" fill="#666666">[bigint]</text>
<polygon fill="none" stroke="#000000" points="46.5,-75.5 46.5,-105.5 215.5,-105.5 215.5,-75.5 46.5,-75.5"/>
<text text-anchor="start" x="53.5" y="-86.9" font-family="Arial" font-size="14.00" fill="#000000">created_at </text>
<text text-anchor="start" x="123.528" y="-86.9" font-family="Arial" font-size="14.00" fill="#666666">[timestamp]</text>
<polygon fill="none" stroke="#000000" points="46.5,-45.5 46.5,-75.5 215.5,-75.5 215.5,-45.5 46.5,-45.5"/>
<text text-anchor="start" x="53.5" y="-56.9" font-family="Arial" font-size="14.00" fill="#000000">updated_at </text>
<text text-anchor="start" x="127.4326" y="-56.9" font-family="Arial" font-size="14.00" fill="#666666">[timestamp]</text>
<polygon fill="none" stroke="#000000" stroke-width="3" points="44.5,-44.5 44.5,-352.5 216.5,-352.5 216.5,-44.5 44.5,-44.5"/>
</g>
</g>
</svg>
