<?xml version="1.0" encoding="UTF-8" standalone="no"?>
<!DOCTYPE svg PUBLIC "-//W3C//DTD SVG 1.1//EN"
 "http://www.w3.org/Graphics/SVG/1.1/DTD/svg11.dtd">
<!-- Generated by graphviz version 2.40.1 (20161225.0304)
 -->
<!-- Title: app Pages: 1 -->
<svg width="3365pt" height="399pt"
 viewBox="0.00 0.00 3365.00 399.00" xmlns="http://www.w3.org/2000/svg" xmlns:xlink="http://www.w3.org/1999/xlink">
<g id="graph0" class="graph" transform="scale(1 1) rotate(0) translate(4 395)">
<title>app</title>
<polygon fill="#ffffff" stroke="transparent" points="-4,4 -4,-395 3361,-395 3361,4 -4,4"/>
<!-- category -->
<g id="node1" class="node">
<title>category</title>
<polygon fill="#efefef" stroke="transparent" points="43,-207.5 43,-242.5 223,-242.5 223,-207.5 43,-207.5"/>
<polygon fill="none" stroke="#000000" points="43,-207.5 43,-242.5 223,-242.5 223,-207.5 43,-207.5"/>
<text text-anchor="start" x="49.8635" y="-220.3" font-family="Arial Bold" font-size="18.00" fill="#000000">category</text>
<text text-anchor="start" x="118.8827" y="-220.3" font-family="Arial" font-size="14.00" fill="#000000"> </text>
<text text-anchor="start" x="122.7733" y="-220.3" font-family="Arial" font-size="14.00" fill="#666666">[BASE TABLE]</text>
<polygon fill="none" stroke="#000000" points="43,-177.5 43,-207.5 223,-207.5 223,-177.5 43,-177.5"/>
<text text-anchor="start" x="50" y="-188.9" font-family="Arial" font-size="14.00" fill="#000000">category_id </text>
<text text-anchor="start" x="126.244" y="-188.9" font-family="Arial" font-size="14.00" fill="#666666">[bigint]</text>
<polygon fill="none" stroke="#000000" points="43,-147.5 43,-177.5 223,-177.5 223,-147.5 43,-147.5"/>
<text text-anchor="start" x="50" y="-158.9" font-family="Arial" font-size="14.00" fill="#000000">name </text>
<text text-anchor="start" x="88.899" y="-158.9" font-family="Arial" font-size="14.00" fill="#666666">[varchar(32)]</text>
</g>
<!-- category_group -->
<g id="node2" class="node">
<title>category_group</title>
<polygon fill="#efefef" stroke="transparent" points="327,-222.5 327,-257.5 563,-257.5 563,-222.5 327,-222.5"/>
<polygon fill="none" stroke="#000000" points="327,-222.5 327,-257.5 563,-257.5 563,-222.5 327,-222.5"/>
<text text-anchor="start" x="333.8519" y="-235.3" font-family="Arial Bold" font-size="18.00" fill="#000000">category_group</text>
<text text-anchor="start" x="458.8943" y="-235.3" font-family="Arial" font-size="14.00" fill="#000000"> </text>
<text text-anchor="start" x="462.7849" y="-235.3" font-family="Arial" font-size="14.00" fill="#666666">[BASE TABLE]</text>
<polygon fill="none" stroke="#000000" points="327,-192.5 327,-222.5 563,-222.5 563,-192.5 327,-192.5"/>
<text text-anchor="start" x="334" y="-203.9" font-family="Arial" font-size="14.00" fill="#000000">group_id </text>
<text text-anchor="start" x="392.3534" y="-203.9" font-family="Arial" font-size="14.00" fill="#666666">[bigint]</text>
<polygon fill="none" stroke="#000000" points="327,-162.5 327,-192.5 563,-192.5 563,-162.5 327,-162.5"/>
<text text-anchor="start" x="334" y="-173.9" font-family="Arial" font-size="14.00" fill="#000000">category_id </text>
<text text-anchor="start" x="410.244" y="-173.9" font-family="Arial" font-size="14.00" fill="#666666">[bigint]</text>
<polygon fill="none" stroke="#000000" points="327,-132.5 327,-162.5 563,-162.5 563,-132.5 327,-132.5"/>
<text text-anchor="start" x="334" y="-143.9" font-family="Arial" font-size="14.00" fill="#000000">application_group </text>
<text text-anchor="start" x="448.3702" y="-143.9" font-family="Arial" font-size="14.00" fill="#666666">[bigint]</text>
</g>
<!-- file -->
<g id="node3" class="node">
<title>file</title>
<polygon fill="#efefef" stroke="transparent" points="667,-222.5 667,-257.5 807,-257.5 807,-222.5 667,-222.5"/>
<polygon fill="none" stroke="#000000" points="667,-222.5 667,-257.5 807,-257.5 807,-222.5 667,-222.5"/>
<text text-anchor="start" x="676.8747" y="-235.3" font-family="Arial Bold" font-size="18.00" fill="#000000">file</text>
<text text-anchor="start" x="699.8715" y="-235.3" font-family="Arial" font-size="14.00" fill="#000000"> </text>
<text text-anchor="start" x="703.7621" y="-235.3" font-family="Arial" font-size="14.00" fill="#666666">[BASE TABLE]</text>
<polygon fill="none" stroke="#000000" points="667,-192.5 667,-222.5 807,-222.5 807,-192.5 667,-192.5"/>
<text text-anchor="start" x="674" y="-203.9" font-family="Arial" font-size="14.00" fill="#000000">file_id </text>
<text text-anchor="start" x="714.4488" y="-203.9" font-family="Arial" font-size="14.00" fill="#666666">[varchar(64)]</text>
<polygon fill="none" stroke="#000000" points="667,-162.5 667,-192.5 807,-192.5 807,-162.5 667,-162.5"/>
<text text-anchor="start" x="673.9846" y="-173.9" font-family="Arial" font-size="14.00" fill="#000000">path </text>
<text text-anchor="start" x="705.1136" y="-173.9" font-family="Arial" font-size="14.00" fill="#666666">[varchar(1024)]</text>
<polygon fill="none" stroke="#000000" points="667,-132.5 667,-162.5 807,-162.5 807,-132.5 667,-132.5"/>
<text text-anchor="start" x="673.9909" y="-143.9" font-family="Arial" font-size="14.00" fill="#000000">name </text>
<text text-anchor="start" x="712.8899" y="-143.9" font-family="Arial" font-size="14.00" fill="#666666">[varchar(256)]</text>
</g>
<!-- group_info -->
<g id="node4" class="node">
<title>group_info</title>
<polygon fill="#efefef" stroke="transparent" points="911,-222.5 911,-257.5 1107,-257.5 1107,-222.5 911,-222.5"/>
<polygon fill="none" stroke="#000000" points="911,-222.5 911,-257.5 1107,-257.5 1107,-222.5 911,-222.5"/>
<text text-anchor="start" x="917.8571" y="-235.3" font-family="Arial Bold" font-size="18.00" fill="#000000">group_info</text>
<text text-anchor="start" x="1002.8891" y="-235.3" font-family="Arial" font-size="14.00" fill="#000000"> </text>
<text text-anchor="start" x="1006.7797" y="-235.3" font-family="Arial" font-size="14.00" fill="#666666">[BASE TABLE]</text>
<polygon fill="none" stroke="#000000" points="911,-192.5 911,-222.5 1107,-222.5 1107,-192.5 911,-192.5"/>
<text text-anchor="start" x="918" y="-203.9" font-family="Arial" font-size="14.00" fill="#000000">group_id </text>
<text text-anchor="start" x="976.3534" y="-203.9" font-family="Arial" font-size="14.00" fill="#666666">[bigint]</text>
<polygon fill="none" stroke="#000000" points="911,-162.5 911,-192.5 1107,-192.5 1107,-162.5 911,-162.5"/>
<text text-anchor="start" x="918" y="-173.9" font-family="Arial" font-size="14.00" fill="#000000">name </text>
<text text-anchor="start" x="956.899" y="-173.9" font-family="Arial" font-size="14.00" fill="#666666">[varchar(32)]</text>
<polygon fill="none" stroke="#000000" points="911,-132.5 911,-162.5 1107,-162.5 1107,-132.5 911,-132.5"/>
<text text-anchor="start" x="918" y="-143.9" font-family="Arial" font-size="14.00" fill="#000000">kana </text>
<text text-anchor="start" x="952.2384" y="-143.9" font-family="Arial" font-size="14.00" fill="#666666">[varchar(32)]</text>
</g>
<!-- group_member -->
<g id="node5" class="node">
<title>group_member</title>
<polygon fill="#efefef" stroke="transparent" points="1212,-222.5 1212,-257.5 1445,-257.5 1445,-222.5 1212,-222.5"/>
<polygon fill="none" stroke="#000000" points="1212,-222.5 1212,-257.5 1445,-257.5 1445,-222.5 1212,-222.5"/>
<text text-anchor="start" x="1218.8639" y="-235.3" font-family="Arial Bold" font-size="18.00" fill="#000000">group_member</text>
<text text-anchor="start" x="1340.8823" y="-235.3" font-family="Arial" font-size="14.00" fill="#000000"> </text>
<text text-anchor="start" x="1344.7729" y="-235.3" font-family="Arial" font-size="14.00" fill="#666666">[BASE TABLE]</text>
<polygon fill="none" stroke="#000000" points="1212,-192.5 1212,-222.5 1445,-222.5 1445,-192.5 1212,-192.5"/>
<text text-anchor="start" x="1219" y="-203.9" font-family="Arial" font-size="14.00" fill="#000000">group_id </text>
<text text-anchor="start" x="1277.3534" y="-203.9" font-family="Arial" font-size="14.00" fill="#666666">[bigint]</text>
<polygon fill="none" stroke="#000000" points="1212,-162.5 1212,-192.5 1445,-192.5 1445,-162.5 1212,-162.5"/>
<text text-anchor="start" x="1219" y="-173.9" font-family="Arial" font-size="14.00" fill="#000000">user_id </text>
<text text-anchor="start" x="1268.7882" y="-173.9" font-family="Arial" font-size="14.00" fill="#666666">[bigint]</text>
<polygon fill="none" stroke="#000000" points="1212,-132.5 1212,-162.5 1445,-162.5 1445,-132.5 1212,-132.5"/>
<text text-anchor="start" x="1219" y="-143.9" font-family="Arial" font-size="14.00" fill="#000000">is_primary </text>
<text text-anchor="start" x="1287.4334" y="-143.9" font-family="Arial" font-size="14.00" fill="#666666">[tinyint(1)]</text>
</g>
<!-- record -->
<g id="node6" class="node">
<title>record</title>
<polygon fill="#efefef" stroke="transparent" points="1549,-312.5 1549,-347.5 1718,-347.5 1718,-312.5 1549,-312.5"/>
<polygon fill="none" stroke="#000000" points="1549,-312.5 1549,-347.5 1718,-347.5 1718,-312.5 1549,-312.5"/>
<text text-anchor="start" x="1559.3716" y="-325.3" font-family="Arial Bold" font-size="18.00" fill="#000000">record</text>
<text text-anchor="start" x="1610.3746" y="-325.3" font-family="Arial" font-size="14.00" fill="#000000"> </text>
<text text-anchor="start" x="1614.2652" y="-325.3" font-family="Arial" font-size="14.00" fill="#666666">[BASE TABLE]</text>
<polygon fill="none" stroke="#000000" points="1549,-282.5 1549,-312.5 1718,-312.5 1718,-282.5 1549,-282.5"/>
<text text-anchor="start" x="1556" y="-293.9" font-family="Arial" font-size="14.00" fill="#000000">record_id </text>
<text text-anchor="start" x="1618.2314" y="-293.9" font-family="Arial" font-size="14.00" fill="#666666">[varchar(64)]</text>
<polygon fill="none" stroke="#000000" points="1549,-252.5 1549,-282.5 1718,-282.5 1718,-252.5 1549,-252.5"/>
<text text-anchor="start" x="1556" y="-263.9" font-family="Arial" font-size="14.00" fill="#000000">status </text>
<text text-anchor="start" x="1597.237" y="-263.9" font-family="Arial" font-size="14.00" fill="#666666">[varchar(16)]</text>
<polygon fill="none" stroke="#000000" points="1549,-222.5 1549,-252.5 1718,-252.5 1718,-222.5 1549,-222.5"/>
<text text-anchor="start" x="1556" y="-233.9" font-family="Arial" font-size="14.00" fill="#000000">title </text>
<text text-anchor="start" x="1581.6676" y="-233.9" font-family="Arial" font-size="14.00" fill="#666666">[varchar(128)]</text>
<polygon fill="none" stroke="#000000" points="1549,-192.5 1549,-222.5 1718,-222.5 1718,-192.5 1549,-192.5"/>
<text text-anchor="start" x="1556" y="-203.9" font-family="Arial" font-size="14.00" fill="#000000">detail </text>
<text text-anchor="start" x="1593.3422" y="-203.9" font-family="Arial" font-size="14.00" fill="#666666">[varchar(512)]</text>
<polygon fill="none" stroke="#000000" points="1549,-162.5 1549,-192.5 1718,-192.5 1718,-162.5 1549,-162.5"/>
<text text-anchor="start" x="1556" y="-173.9" font-family="Arial" font-size="14.00" fill="#000000">category_id </text>
<text text-anchor="start" x="1632.244" y="-173.9" font-family="Arial" font-size="14.00" fill="#666666">[bigint]</text>
<polygon fill="none" stroke="#000000" points="1549,-132.5 1549,-162.5 1718,-162.5 1718,-132.5 1549,-132.5"/>
<text text-anchor="start" x="1555.6985" y="-143.9" font-family="Arial" font-size="14.00" fill="#000000">application_group </text>
<text text-anchor="start" x="1670.0687" y="-143.9" font-family="Arial" font-size="14.00" fill="#666666">[bigint]</text>
<polygon fill="none" stroke="#000000" points="1549,-102.5 1549,-132.5 1718,-132.5 1718,-102.5 1549,-102.5"/>
<text text-anchor="start" x="1556" y="-113.9" font-family="Arial" font-size="14.00" fill="#000000">created_by </text>
<text text-anchor="start" x="1629.1374" y="-113.9" font-family="Arial" font-size="14.00" fill="#666666">[bigint]</text>
<polygon fill="none" stroke="#000000" points="1549,-72.5 1549,-102.5 1718,-102.5 1718,-72.5 1549,-72.5"/>
<text text-anchor="start" x="1556" y="-83.9" font-family="Arial" font-size="14.00" fill="#000000">created_at </text>
<text text-anchor="start" x="1626.028" y="-83.9" font-family="Arial" font-size="14.00" fill="#666666">[timestamp]</text>
<polygon fill="none" stroke="#000000" points="1549,-42.5 1549,-72.5 1718,-72.5 1718,-42.5 1549,-42.5"/>
<text text-anchor="start" x="1556" y="-53.9" font-family="Arial" font-size="14.00" fill="#000000">updated_at </text>
<text text-anchor="start" x="1629.9326" y="-53.9" font-family="Arial" font-size="14.00" fill="#666666">[timestamp]</text>
</g>
<!-- record_comment -->
<g id="node7" class="node">
<title>record_comment</title>
<polygon fill="#efefef" stroke="transparent" points="1822,-252.5 1822,-287.5 2068,-287.5 2068,-252.5 1822,-252.5"/>
<polygon fill="none" stroke="#000000" points="1822,-252.5 1822,-287.5 2068,-287.5 2068,-252.5 1822,-252.5"/>
<text text-anchor="start" x="1828.8659" y="-265.3" font-family="Arial Bold" font-size="18.00" fill="#000000">record_comment</text>
<text text-anchor="start" x="1963.8803" y="-265.3" font-family="Arial" font-size="14.00" fill="#000000"> </text>
<text text-anchor="start" x="1967.7709" y="-265.3" font-family="Arial" font-size="14.00" fill="#666666">[BASE TABLE]</text>
<polygon fill="none" stroke="#000000" points="1822,-222.5 1822,-252.5 2068,-252.5 2068,-222.5 1822,-222.5"/>
<text text-anchor="start" x="1829" y="-233.9" font-family="Arial" font-size="14.00" fill="#000000">comment_id </text>
<text text-anchor="start" x="1909.122" y="-233.9" font-family="Arial" font-size="14.00" fill="#666666">[bigint]</text>
<polygon fill="none" stroke="#000000" points="1822,-192.5 1822,-222.5 2068,-222.5 2068,-192.5 1822,-192.5"/>
<text text-anchor="start" x="1829" y="-203.9" font-family="Arial" font-size="14.00" fill="#000000">linked_record_id </text>
<text text-anchor="start" x="1935.575" y="-203.9" font-family="Arial" font-size="14.00" fill="#666666">[varchar(64)]</text>
<polygon fill="none" stroke="#000000" points="1822,-162.5 1822,-192.5 2068,-192.5 2068,-162.5 1822,-162.5"/>
<text text-anchor="start" x="1829" y="-173.9" font-family="Arial" font-size="14.00" fill="#000000">value </text>
<text text-anchor="start" x="1866.345" y="-173.9" font-family="Arial" font-size="14.00" fill="#666666">[varchar(512)]</text>
<polygon fill="none" stroke="#000000" points="1822,-132.5 1822,-162.5 2068,-162.5 2068,-132.5 1822,-132.5"/>
<text text-anchor="start" x="1829" y="-143.9" font-family="Arial" font-size="14.00" fill="#000000">created_by </text>
<text text-anchor="start" x="1902.1374" y="-143.9" font-family="Arial" font-size="14.00" fill="#666666">[bigint]</text>
<polygon fill="none" stroke="#000000" points="1822,-102.5 1822,-132.5 2068,-132.5 2068,-102.5 1822,-102.5"/>
<text text-anchor="start" x="1829" y="-113.9" font-family="Arial" font-size="14.00" fill="#000000">created_at </text>
<text text-anchor="start" x="1899.028" y="-113.9" font-family="Arial" font-size="14.00" fill="#666666">[timestamp]</text>
</g>
<!-- record_item_file -->
<g id="node8" class="node">
<title>record_item_file</title>
<polygon fill="#efefef" stroke="transparent" points="2172,-252.5 2172,-287.5 2418,-287.5 2418,-252.5 2172,-252.5"/>
<polygon fill="none" stroke="#000000" points="2172,-252.5 2172,-287.5 2418,-287.5 2418,-252.5 2172,-252.5"/>
<text text-anchor="start" x="2182.3696" y="-265.3" font-family="Arial Bold" font-size="18.00" fill="#000000">record_item_file</text>
<text text-anchor="start" x="2310.3766" y="-265.3" font-family="Arial" font-size="14.00" fill="#000000"> </text>
<text text-anchor="start" x="2314.2672" y="-265.3" font-family="Arial" font-size="14.00" fill="#666666">[BASE TABLE]</text>
<polygon fill="none" stroke="#000000" points="2172,-222.5 2172,-252.5 2418,-252.5 2418,-222.5 2172,-222.5"/>
<text text-anchor="start" x="2179" y="-233.9" font-family="Arial" font-size="14.00" fill="#000000">item_id </text>
<text text-anchor="start" x="2228.0028" y="-233.9" font-family="Arial" font-size="14.00" fill="#666666">[bigint]</text>
<polygon fill="none" stroke="#000000" points="2172,-192.5 2172,-222.5 2418,-222.5 2418,-192.5 2172,-192.5"/>
<text text-anchor="start" x="2179" y="-203.9" font-family="Arial" font-size="14.00" fill="#000000">linked_record_id </text>
<text text-anchor="start" x="2285.575" y="-203.9" font-family="Arial" font-size="14.00" fill="#666666">[varchar(64)]</text>
<polygon fill="none" stroke="#000000" points="2172,-162.5 2172,-192.5 2418,-192.5 2418,-162.5 2172,-162.5"/>
<text text-anchor="start" x="2179" y="-173.9" font-family="Arial" font-size="14.00" fill="#000000">linked_file_id </text>
<text text-anchor="start" x="2263.7924" y="-173.9" font-family="Arial" font-size="14.00" fill="#666666">[varchar(64)]</text>
<polygon fill="none" stroke="#000000" points="2172,-132.5 2172,-162.5 2418,-162.5 2418,-132.5 2172,-132.5"/>
<text text-anchor="start" x="2178.7055" y="-143.9" font-family="Arial" font-size="14.00" fill="#000000">linked_thumbnail_file_id </text>
<text text-anchor="start" x="2331.9579" y="-143.9" font-family="Arial" font-size="14.00" fill="#666666">[varchar(64)]</text>
<polygon fill="none" stroke="#000000" points="2172,-102.5 2172,-132.5 2418,-132.5 2418,-102.5 2172,-102.5"/>
<text text-anchor="start" x="2179" y="-113.9" font-family="Arial" font-size="14.00" fill="#000000">created_at </text>
<text text-anchor="start" x="2249.028" y="-113.9" font-family="Arial" font-size="14.00" fill="#666666">[timestamp]</text>
</g>
<!-- record_last_access -->
<g id="node9" class="node">
<title>record_last_access</title>
<polygon fill="#efefef" stroke="transparent" points="2522,-222.5 2522,-257.5 2788,-257.5 2788,-222.5 2522,-222.5"/>
<polygon fill="none" stroke="#000000" points="2522,-222.5 2522,-257.5 2788,-257.5 2788,-222.5 2522,-222.5"/>
<text text-anchor="start" x="2528.8579" y="-235.3" font-family="Arial Bold" font-size="18.00" fill="#000000">record_last_access</text>
<text text-anchor="start" x="2683.8883" y="-235.3" font-family="Arial" font-size="14.00" fill="#000000"> </text>
<text text-anchor="start" x="2687.7789" y="-235.3" font-family="Arial" font-size="14.00" fill="#666666">[BASE TABLE]</text>
<polygon fill="none" stroke="#000000" points="2522,-192.5 2522,-222.5 2788,-222.5 2788,-192.5 2522,-192.5"/>
<text text-anchor="start" x="2529" y="-203.9" font-family="Arial" font-size="14.00" fill="#000000">record_id </text>
<text text-anchor="start" x="2591.2314" y="-203.9" font-family="Arial" font-size="14.00" fill="#666666">[varchar(64)]</text>
<polygon fill="none" stroke="#000000" points="2522,-162.5 2522,-192.5 2788,-192.5 2788,-162.5 2522,-162.5"/>
<text text-anchor="start" x="2529" y="-173.9" font-family="Arial" font-size="14.00" fill="#000000">user_id </text>
<text text-anchor="start" x="2578.7882" y="-173.9" font-family="Arial" font-size="14.00" fill="#666666">[bigint]</text>
<polygon fill="none" stroke="#000000" points="2522,-132.5 2522,-162.5 2788,-162.5 2788,-132.5 2522,-132.5"/>
<text text-anchor="start" x="2529" y="-143.9" font-family="Arial" font-size="14.00" fill="#000000">access_time </text>
<text text-anchor="start" x="2610.6788" y="-143.9" font-family="Arial" font-size="14.00" fill="#666666">[timestamp]</text>
</g>
<!-- session -->
<g id="node10" class="node">
<title>session</title>
<polygon fill="#efefef" stroke="transparent" points="2892,-237.5 2892,-272.5 3064,-272.5 3064,-237.5 2892,-237.5"/>
<polygon fill="none" stroke="#000000" points="2892,-237.5 2892,-272.5 3064,-272.5 3064,-237.5 2892,-237.5"/>
<text text-anchor="start" x="2898.8667" y="-250.3" font-family="Arial Bold" font-size="18.00" fill="#000000">session</text>
<text text-anchor="start" x="2959.8795" y="-250.3" font-family="Arial" font-size="14.00" fill="#000000"> </text>
<text text-anchor="start" x="2963.7701" y="-250.3" font-family="Arial" font-size="14.00" fill="#666666">[BASE TABLE]</text>
<polygon fill="none" stroke="#000000" points="2892,-207.5 2892,-237.5 3064,-237.5 3064,-207.5 2892,-207.5"/>
<text text-anchor="start" x="2899" y="-218.9" font-family="Arial" font-size="14.00" fill="#000000">session_id </text>
<text text-anchor="start" x="2969.0168" y="-218.9" font-family="Arial" font-size="14.00" fill="#666666">[bigint]</text>
<polygon fill="none" stroke="#000000" points="2892,-177.5 2892,-207.5 3064,-207.5 3064,-177.5 2892,-177.5"/>
<text text-anchor="start" x="2899" y="-188.9" font-family="Arial" font-size="14.00" fill="#000000">value </text>
<text text-anchor="start" x="2936.345" y="-188.9" font-family="Arial" font-size="14.00" fill="#666666">[varchar(256)]</text>
<polygon fill="none" stroke="#000000" points="2892,-147.5 2892,-177.5 3064,-177.5 3064,-147.5 2892,-147.5"/>
<text text-anchor="start" x="2899" y="-158.9" font-family="Arial" font-size="14.00" fill="#000000">linked_user_id </text>
<text text-anchor="start" x="2993.1318" y="-158.9" font-family="Arial" font-size="14.00" fill="#666666">[bigint]</text>
<polygon fill="none" stroke="#000000" points="2892,-117.5 2892,-147.5 3064,-147.5 3064,-117.5 2892,-117.5"/>
<text text-anchor="start" x="2899" y="-128.9" font-family="Arial" font-size="14.00" fill="#000000">created_at </text>
<text text-anchor="start" x="2969.028" y="-128.9" font-family="Arial" font-size="14.00" fill="#666666">[timestamp]</text>
</g>
<!-- user -->
<g id="node11" class="node">
<title>user</title>
<polygon fill="#efefef" stroke="transparent" points="3168,-222.5 3168,-257.5 3314,-257.5 3314,-222.5 3168,-222.5"/>
<polygon fill="none" stroke="#000000" points="3168,-222.5 3168,-257.5 3314,-257.5 3314,-222.5 3168,-222.5"/>
<text text-anchor="start" x="3174.8708" y="-235.3" font-family="Arial Bold" font-size="18.00" fill="#000000">user</text>
<text text-anchor="start" x="3209.8754" y="-235.3" font-family="Arial" font-size="14.00" fill="#000000"> </text>
<text text-anchor="start" x="3213.766" y="-235.3" font-family="Arial" font-size="14.00" fill="#666666">[BASE TABLE]</text>
<polygon fill="none" stroke="#000000" points="3168,-192.5 3168,-222.5 3314,-222.5 3314,-192.5 3168,-192.5"/>
<text text-anchor="start" x="3175" y="-203.9" font-family="Arial" font-size="14.00" fill="#000000">user_id </text>
<text text-anchor="start" x="3224.7882" y="-203.9" font-family="Arial" font-size="14.00" fill="#666666">[bigint]</text>
<polygon fill="none" stroke="#000000" points="3168,-162.5 3168,-192.5 3314,-192.5 3314,-162.5 3168,-162.5"/>
<text text-anchor="start" x="3175" y="-173.9" font-family="Arial" font-size="14.00" fill="#000000">name </text>
<text text-anchor="start" x="3213.899" y="-173.9" font-family="Arial" font-size="14.00" fill="#666666">[varchar(32)]</text>
<polygon fill="none" stroke="#000000" points="3168,-132.5 3168,-162.5 3314,-162.5 3314,-132.5 3168,-132.5"/>
<text text-anchor="start" x="3175" y="-143.9" font-family="Arial" font-size="14.00" fill="#000000">kana </text>
<text text-anchor="start" x="3209.2384" y="-143.9" font-family="Arial" font-size="14.00" fill="#666666">[varchar(32)]</text>
</g>
</g>
</svg>
